<?xml version="1.0"?><svg xmlns="http://www.w3.org/2000/svg" viewBox="0 0 128 128"><path d="m120.77 93.11c-.31-15.14-2.06-80.72-2.37-84.43-.31-3.71-2.94-4.86-16.43-4.66-13.49.21-85.97 1.03-88.96 1.03s-5.87 2.16-5.97 6.49c0 0 1.65 95.14 1.85 101.93.21 6.8 3.04 10.52 4.8 10.52s7.52.1 26.77-.62 65.28-2.16 73.41-2.47 7.21-12.66 6.9-27.8zm-6.24 19.33c-.41.21-61.88 1.44-79.9 2.68s-21.72 2.99-21.93-4.94-1.85-96.58-1.85-96.58c0-1.85-.1-4.43 2.88-4.74 2.99-.31 94.62-1.34 95.96-1.13s2.78 47.16 3.5 63.42c.72 16.27 1.75 41.08 1.34 41.29zm-15.13-92.15c-1.13-.1-21.83-.1-23.99-.1s-3.4 1.24-3.4 1.85v6.9s-3.19-.1-5.87-.21c-2.68-.1-3.4 1.13-3.5 2.16s-.21 6.38-.21 6.38l-5.66-.1s.1-10.71.1-12.56-.72-3.4-2.68-3.81-17.09 0-23.17.41c-6.07.41-5.46 2.99-5.46 8.03 0 0 .62 64.56.93 68.06s.93 4.53 2.06 4.63 25.12.51 26.67.31c1.54-.21 2.16-1.85 1.96-4.22-.21-2.37.1-10.4.1-10.4h4.94s.1 2.27.21 4.32c.1 2.06 1.44 2.68 2.37 2.78s5.15 0 5.15 0 0 2.88.1 4.74c.1 1.85 1.03 3.29 2.68 3.5s18.94.31 22.65.21 4.53-1.44 4.53-2.99 0-20.28-.1-22.86-.93-4.02-2.27-4.02-5.97.1-5.97.1.1-4.22 0-7.41-1.96-3.09-3.29-3.29c-1.34-.21-4.43-.21-4.43-.21l.1-2.99s1.96 0 4.22-.1 3.91-.82 3.91-2.88-.1-6.38-.1-6.38 3.71.1 5.66-.1c1.96-.21 2.88-2.68 2.88-3.91s.93-22.03 1.03-23.27-1.03-2.47-2.16-2.57zm-2.27 26.46c-.62.31-4.84.1-5.56.1s-2.88.62-2.99 2.88c-.1 2.27.1 6.49.1 6.49s-5.87 0-7.21.1-.82 2.68-.82 5.66.31 4.53 2.57 4.53h4.53s-.1 7.41 0 8.85 1.24 1.44 3.19 1.54c1.96.1 5.25.1 5.25.1l-.1 22.14-22.45.1s.1-4.32 0-5.77c-.1-1.44-1.34-2.27-2.78-2.37s-4.74-.21-4.74-.21.82-5.97 0-6.59-10.4-.72-11.22-.62-1.44.41-1.44 3.09v11.53l-23.68-.21s-.93-17.61-1.03-39.95.82-33.36.82-33.36 22.24-.51 23.06-.1.82 12.15.82 13.69 0 3.09 4.43 3.19 8.34.51 8.55-2.47c.21-2.99-.1-5.87-.1-5.87s7.62 1.13 8.65-.31.72-8.96.72-8.96l22.03.1s0 22.34-.62 22.65zm-60.85-6.9c-.1-1.96.21-8.34.21-8.34s4.22-.1 5.97-.93c1.75-.82 1.44-2.68-2.16-2.99s-5.87.31-6.9 2.37-.99 10.25-.51 11.33c.41.93 3.5.51 3.4-1.44zm1.52 49.76c-.85-.54-3.17 2.34-2.47 3.24.54.69 4.17 3.71 4.71 3.94s2.39-.54 2.39-1.31-3.78-5.33-4.63-5.87zm4.63-3.01c-.93-.31-2.82 1.81-2.24 2.39 1 1 4.94 6.33 6.02 6.33s1.78-.39 1.78-1.39-4.63-7.03-5.56-7.34zm3.87-3.01c-.93-.54-2.78 1.68-2.08 2.47 1.16 1.31 4.09 5.1 4.79 5.25.69.15 1.85-1.24 1.62-2.08-.23-.85-3.4-5.1-4.32-5.64zm3.39-.54c.93-.93-.17-4.86-2.39-3.09-1.54 1.24 1.47 4.02 2.39 3.09zm31.74 14.67c.7.23 2.47-.54 2.32-1.24s-3.94-5.02-4.63-5.33c-.7-.31-3.16 1.75-2.7 2.47.7 1.08 4.32 3.86 5.02 4.09zm6.95-.39c.54.08 2.39 0 2.47-.93s-6.95-9.58-8.11-9.96c-1.16-.39-2.93 1.83-2.32 2.63 1.54 2.01 7.41 8.19 7.95 8.26zm4.02-3.71c.7.23 1.93-.39 1.93-1.54s-6.1-9.27-6.8-9.81-3.71 1.8-3.17 2.63c1 1.54 7.34 8.49 8.03 8.73zm1-7.95c.7-.15.54-1.93.46-2.7s-.77-2.24-1.54-2.55-3 1.58-2.55 2.16c.54.7 2.93 3.24 3.63 3.09zm-12.43-55.6c.93 0 11.51.39 12.2.23.69-.15.77-3.24.08-3.47-.7-.23-12.36-.42-12.59-.08-.31.46-.62 3.32.31 3.32z" fill="#1d1d1b"/></svg>